{
  "accessors": [
    {
      "bufferView": 2,
      "componentType": 5126,
      "count": 8,
      "max": [
        -0.11857900023460388,
        0.02769000083208084,
        0.23655299842357635
      ],
      "min": [
        -0.16555200517177582,
        -0.01912200078368187,
        0.23655299842357635
      ],
      "type": "VEC3"
    },
    {
      "bufferView": 0,
      "componentType": 5125,
      "count": 16,
      "type": "SCALAR"
    },
    {
      "bufferView": 2,
      "byteOffset": 96,
      "componentType": 5126,
      "count": 65532,
      "max": [
        0.247529998421669,
        0.03699899837374687,
        0.2980569899082184
      ],
      "min": [
        -0.2588759958744049,
        -0.02843100018799305,
        0.0029219998978078365
      ],
      "type": "VEC3"
    },
    {
      "bufferView": 2,
      "byteOffset": 786480,
      "componentType": 5126,
      "count": 65532,
      "type": "VEC3"
    },
    {
      "bufferView": 1,
      "componentType": 5126,
      "count": 65532,
      "type": "VEC2"
    },
    {
      "bufferView": 0,
      "byteOffset": 64,
      "componentType": 5125,
      "count": 104637,
      "type": "SCALAR"
    },
    {
      "bufferView": 2,
      "byteOffset": 1572864,
      "componentType": 5126,
      "count": 26859,
      "max": [
        0.24750100076198578,
        0.03699899837374687,
        0.29802799224853516
      ],
      "min": [
        -0.2588460147380829,
        -0.02843100018799305,
        0.002950000111013651
      ],
      "type": "VEC3"
    },
    {
      "bufferView": 2,
      "byteOffset": 1895172,
      "componentType": 5126,
      "count": 26859,
      "type": "VEC3"
    },
    {
      "bufferView": 1,
      "byteOffset": 524256,
      "componentType": 5126,
      "count": 26859,
      "type": "VEC2"
    },
    {
      "bufferView": 0,
      "byteOffset": 418612,
      "componentType": 5125,
      "count": 46215,
      "type": "SCALAR"
    },
    {
      "bufferView": 2,
      "byteOffset": 2217480,
      "componentType": 5126,
      "count": 721,
      "max": [
        -0.12072400003671646,
        0.024816999211907387,
        0.3022480010986328
      ],
      "min": [
        -0.16178900003433228,
        -0.016248999163508415,
        0.2622619867324829
      ],
      "type": "VEC3"
    },
    {
      "bufferView": 2,
      "byteOffset": 2226132,
      "componentType": 5126,
      "count": 721,
      "type": "VEC3"
    },
    {
      "bufferView": 1,
      "byteOffset": 739128,
      "componentType": 5126,
      "count": 721,
      "type": "VEC2"
    },
    {
      "bufferView": 0,
      "byteOffset": 603472,
      "componentType": 5125,
      "count": 3354,
      "type": "SCALAR"
    },
    {
      "bufferView": 2,
      "byteOffset": 2234784,
      "componentType": 5126,
      "count": 1809,
      "max": [
        0.15142899751663208,
        0.024816999211907387,
        0.3022480010986328
      ],
      "min": [
        0.11036299914121628,
        -0.016248999163508415,
        0.2622619867324829
      ],
      "type": "VEC3"
    },
    {
      "bufferView": 2,
      "byteOffset": 2256492,
      "componentType": 5126,
      "count": 1809,
      "type": "VEC3"
    },
    {
      "bufferView": 1,
      "byteOffset": 744896,
      "componentType": 5126,
      "count": 1809,
      "type": "VEC2"
    },
    {
      "bufferView": 0,
      "byteOffset": 616888,
      "componentType": 5125,
      "count": 3354,
      "type": "SCALAR"
    },
    {
      "bufferView": 2,
      "byteOffset": 2278200,
      "componentType": 5126,
      "count": 721,
      "max": [
        -0.052538998425006866,
        0.024816999211907387,
        0.3022480010986328
      ],
      "min": [
        -0.09360399842262268,
        -0.016248999163508415,
        0.2622619867324829
      ],
      "type": "VEC3"
    },
    {
      "bufferView": 2,
      "byteOffset": 2286852,
      "componentType": 5126,
      "count": 721,
      "type": "VEC3"
    },
    {
      "bufferView": 1,
      "byteOffset": 759368,
      "componentType": 5126,
      "count": 721,
      "type": "VEC2"
    },
    {
      "bufferView": 0,
      "byteOffset": 630304,
      "componentType": 5125,
      "count": 3354,
      "type": "SCALAR"
    },
    {
      "bufferView": 2,
      "byteOffset": 2295504,
      "componentType": 5126,
      "count": 721,
      "max": [
        0.08370999991893768,
        0.024816999211907387,
        0.3022480010986328
      ],
      "min": [
        0.04264499992132187,
        -0.016248999163508415,
        0.2622619867324829
      ],
      "type": "VEC3"
    },
    {
      "bufferView": 2,
      "byteOffset": 2304156,
      "componentType": 5126,
      "count": 721,
      "type": "VEC3"
    },
    {
      "bufferView": 1,
      "byteOffset": 765136,
      "componentType": 5126,
      "count": 721,
      "type": "VEC2"
    },
    {
      "bufferView": 0,
      "byteOffset": 643720,
      "componentType": 5125,
      "count": 3354,
      "type": "SCALAR"
    },
    {
      "bufferView": 2,
      "byteOffset": 2312808,
      "componentType": 5126,
      "count": 721,
      "max": [
        0.01447100006043911,
        0.024816999211907387,
        0.3022480010986328
      ],
      "min": [
        -0.02659500017762184,
        -0.016248999163508415,
        0.2622619867324829
      ],
      "type": "VEC3"
    },
    {
      "bufferView": 2,
      "byteOffset": 2321460,
      "componentType": 5126,
      "count": 721,
      "type": "VEC3"
    },
    {
      "bufferView": 1,
      "byteOffset": 770904,
      "componentType": 5126,
      "count": 721,
      "type": "VEC2"
    },
    {
      "bufferView": 0,
      "byteOffset": 657136,
      "componentType": 5125,
      "count": 3354,
      "type": "SCALAR"
    },
    {
      "bufferView": 2,
      "byteOffset": 2330112,
      "componentType": 5126,
      "count": 287,
      "max": [
        -0.12428899854421616,
        0.021252000704407692,
        0.16465899348258972
      ],
      "min": [
        -0.15823499858379364,
        -0.01269300002604723,
        0.034974001348018646
      ],
      "type": "VEC3"
    },
    {
      "bufferView": 2,
      "byteOffset": 2333556,
      "componentType": 5126,
      "count": 287,
      "type": "VEC3"
    },
    {
      "bufferView": 1,
      "byteOffset": 776672,
      "componentType": 5126,
      "count": 287,
      "type": "VEC2"
    },
    {
      "bufferView": 0,
      "byteOffset": 670552,
      "componentType": 5125,
      "count": 1242,
      "type": "SCALAR"
    },
    {
      "bufferView": 2,
      "byteOffset": 2337000,
      "componentType": 5126,
      "count": 287,
      "max": [
        0.010657000355422497,
        0.021067000925540924,
        0.1713709980249405
      ],
      "min": [
        -0.022938000038266182,
        -0.012509999796748161,
        0.034974001348018646
      ],
      "type": "VEC3"
    },
    {
      "bufferView": 2,
      "byteOffset": 2340444,
      "componentType": 5126,
      "count": 287,
      "type": "VEC3"
    },
    {
      "bufferView": 1,
      "byteOffset": 778968,
      "componentType": 5126,
      "count": 287,
      "type": "VEC2"
    },
    {
      "bufferView": 0,
      "byteOffset": 675520,
      "componentType": 5125,
      "count": 1242,
      "type": "SCALAR"
    },
    {
      "bufferView": 2,
      "byteOffset": 2343888,
      "componentType": 5126,
      "count": 290,
      "max": [
        0.07951699942350388,
        0.02078299969434738,
        0.22950300574302673
      ],
      "min": [
        0.04655500128865242,
        -0.012198000214993954,
        0.034974001348018646
      ],
      "type": "VEC3"
    },
    {
      "bufferView": 2,
      "byteOffset": 2347368,
      "componentType": 5126,
      "count": 290,
      "type": "VEC3"
    },
    {
      "bufferView": 1,
      "byteOffset": 781264,
      "componentType": 5126,
      "count": 290,
      "type": "VEC2"
    },
    {
      "bufferView": 0,
      "byteOffset": 680488,
      "componentType": 5125,
      "count": 1242,
      "type": "SCALAR"
    },
    {
      "bufferView": 2,
      "byteOffset": 2350848,
      "componentType": 5126,
      "count": 287,
      "max": [
        -0.05549599975347519,
        0.021400000900030136,
        0.18831799924373627
      ],
      "min": [
        -0.0897350013256073,
        -0.0128389997407794,
        0.034974001348018646
      ],
      "type": "VEC3"
    },
    {
      "bufferView": 2,
      "byteOffset": 2354292,
      "componentType": 5126,
      "count": 287,
      "type": "VEC3"
    },
    {
      "bufferView": 1,
      "byteOffset": 783584,
      "componentType": 5126,
      "count": 287,
      "type": "VEC2"
    },
    {
      "bufferView": 0,
      "byteOffset": 685456,
      "componentType": 5125,
      "count": 1242,
      "type": "SCALAR"
    },
    {
      "bufferView": 2,
      "byteOffset": 2357736,
      "componentType": 5126,
      "count": 287,
      "max": [
        0.14840799570083618,
        0.021895000711083412,
        0.16465899348258972
      ],
      "min": [
        0.11318399757146835,
        -0.01332900021225214,
        0.034974001348018646
      ],
      "type": "VEC3"
    },
    {
      "bufferView": 2,
      "byteOffset": 2361180,
      "componentType": 5126,
      "count": 287,
      "type": "VEC3"
    },
    {
      "bufferView": 1,
      "byteOffset": 785880,
      "componentType": 5126,
      "count": 287,
      "type": "VEC2"
    },
    {
      "bufferView": 0,
      "byteOffset": 690424,
      "componentType": 5125,
      "count": 1242,
      "type": "SCALAR"
    },
    {
      "bufferView": 2,
      "byteOffset": 2364624,
      "componentType": 5126,
      "count": 4875,
      "max": [
        0.1550460010766983,
        0.02843400090932846,
        0.28664401173591614
      ],
      "min": [
        -0.1654060035943985,
        -0.01986600086092949,
        0.02744000032544136
      ],
      "type": "VEC3"
    },
    {
      "bufferView": 2,
      "byteOffset": 2423124,
      "componentType": 5126,
      "count": 4875,
      "type": "VEC3"
    },
    {
      "bufferView": 1,
      "byteOffset": 788176,
      "componentType": 5126,
      "count": 4875,
      "type": "VEC2"
    },
    {
      "bufferView": 0,
      "byteOffset": 695392,
      "componentType": 5125,
      "count": 22050,
      "type": "SCALAR"
    }
  ],
  "asset": {
    "generator": "fab-model-conversion",
    "version": "2.0"
  },
  "bufferViews": [
    {
      "buffer": 0,
      "byteLength": 783592,
      "target": 34963
    },
    {
      "buffer": 0,
      "byteLength": 827176,
      "byteOffset": 783592,
      "byteStride": 8,
      "target": 34962
    },
    {
      "buffer": 0,
      "byteLength": 2481624,
      "byteOffset": 1610768,
      "byteStride": 12,
      "target": 34962
    }
  ],
  "buffers": [
    {
      "byteLength": 4092392,
      "uri": "scene.bin"
    }
  ],
  "extensionsUsed": [
    "KHR_materials_clearcoat",
    "KHR_materials_transmission",
    "KHR_materials_emissive_strength"
  ],
  "materials": [
    {
      "doubleSided": true,
      "name": "Material.001",
      "pbrMetallicRoughness": {
        "baseColorFactor": [
          0.024031858959787163,
          0.013239145547421739,
          0.0007485960944014225,
          1.0
        ],
        "metallicFactor": 0.0,
        "roughnessFactor": 0.6
      }
    },
    {
      "doubleSided": true,
      "name": "material",
      "pbrMetallicRoughness": {
        "baseColorFactor": [
          0.027606939338488443,
          0.007436948095088333,
          0.0,
          1.0
        ],
        "metallicFactor": 0.0,
        "roughnessFactor": 0.9127646865209493
      }
    },
    {
      "doubleSided": true,
      "name": "cap.001",
      "pbrMetallicRoughness": {
        "baseColorFactor": [
          0.013314292935956682,
          0.004604341613502642,
          0.0,
          1.0
        ],
        "metallicFactor": 0.0,
        "roughnessFactor": 0.821335836452073
      }
    },
    {
      "doubleSided": true,
      "name": "cap.002",
      "pbrMetallicRoughness": {
        "baseColorFactor": [
          0.01499303941969177,
          0.01205968890905702,
          0.0,
          1.0
        ],
        "metallicFactor": 0.0,
        "roughnessFactor": 0.8396216064658483
      }
    },
    {
      "doubleSided": true,
      "name": "cap.003",
      "pbrMetallicRoughness": {
        "baseColorFactor": [
          0.02638308043037943,
          0.00779414679675797,
          0.0,
          1.0
        ],
        "metallicFactor": 0.0
      }
    },
    {
      "doubleSided": true,
      "name": "cap.004",
      "pbrMetallicRoughness": {
        "baseColorFactor": [
          0.014139134381343963,
          0.0074829854425836635,
          0.0,
          1.0
        ],
        "metallicFactor": 0.0,
        "roughnessFactor": 0.8822884031646572
      }
    },
    {
      "alphaMode": "BLEND",
      "doubleSided": true,
      "extensions": {
        "KHR_materials_clearcoat": {
          "clearcoatFactor": 0.7725737830820055,
          "clearcoatRoughnessFactor": 0.04
        },
        "KHR_materials_transmission": {
          "transmissionFactor": 1
        }
      },
      "name": "glas",
      "pbrMetallicRoughness": {
        "baseColorFactor": [
          1.0,
          1.0,
          1.0,
          0.25
        ],
        "metallicFactor": 0.0,
        "roughnessFactor": 0.07771452255854494
      }
    },
    {
      "alphaMode": "BLEND",
      "doubleSided": true,
      "emissiveFactor": [
        1.0,
        0.0,
        0.0
      ],
      "extensions": {
        "KHR_materials_emissive_strength": {
          "emissiveStrength": 10
        }
      },
      "name": "magic_liquid",
      "pbrMetallicRoughness": {
        "baseColorFactor": [
          1.0,
          0.019708368943048015,
          0.019708368943048015,
          0.5836208262729943
        ],
        "metallicFactor": 0.0,
        "roughnessFactor": 0.3946678694639831
      }
    },
    {
      "doubleSided": true,
      "emissiveFactor": [
        0.5711248294648729,
        1.0,
        0.0
      ],
      "extensions": {
        "KHR_materials_emissive_strength": {
          "emissiveStrength": 10
        }
      },
      "name": "magic_liquid.001",
      "pbrMetallicRoughness": {
        "baseColorFactor": [
          0.6076573055759454,
          1.0,
          0.01101123050028984,
          1.0
        ],
        "metallicFactor": 0.0,
        "roughnessFactor": 0.0
      }
    },
    {
      "doubleSided": true,
      "emissiveFactor": [
        1.0,
        0.0,
        0.9022800986427704
      ],
      "extensions": {
        "KHR_materials_emissive_strength": {
          "emissiveStrength": 10
        }
      },
      "name": "magic_liquid.002",
      "pbrMetallicRoughness": {
        "baseColorFactor": [
          0.9504074916579607,
          0.004955415229823,
          0.5108569139772703,
          1.0
        ],
        "metallicFactor": 0.0,
        "roughnessFactor": 0.0
      }
    },
    {
      "alphaMode": "BLEND",
      "doubleSided": true,
      "emissiveFactor": [
        0.0,
        1.0,
        0.05357378063398136
      ],
      "extensions": {
        "KHR_materials_emissive_strength": {
          "emissiveStrength": 10
        }
      },
      "name": "magic_liquid.003",
      "pbrMetallicRoughness": {
        "baseColorFactor": [
          0.04011232605020126,
          1.0,
          0.09371096464480372,
          0.28495324938133143
        ],
        "metallicFactor": 0.0,
        "roughnessFactor": 0.07161926588728651
      }
    },
    {
      "doubleSided": true,
      "emissiveFactor": [
        0.016789177993879932,
        0.21039880177033254,
        1.0
      ],
      "extensions": {
        "KHR_materials_emissive_strength": {
          "emissiveStrength": 7.299069863831965
        }
      },
      "name": "magic_liquid.004",
      "pbrMetallicRoughness": {
        "baseColorFactor": [
          0.0,
          0.14430706441529795,
          1.0,
          1.0
        ],
        "metallicFactor": 0.0,
        "roughnessFactor": 0.0
      }
    }
  ],
  "meshes": [
    {
      "name": "Object_0",
      "primitives": [
        {
          "attributes": {
            "POSITION": 0
          },
          "indices": 1,
          "material": 0,
          "mode": 1
        }
      ]
    },
    {
      "name": "Object_1",
      "primitives": [
        {
          "attributes": {
            "NORMAL": 3,
            "POSITION": 2,
            "TEXCOORD_0": 4
          },
          "indices": 5,
          "material": 0,
          "mode": 4
        }
      ]
    },
    {
      "name": "Object_2",
      "primitives": [
        {
          "attributes": {
            "NORMAL": 7,
            "POSITION": 6,
            "TEXCOORD_0": 8
          },
          "indices": 9,
          "material": 0,
          "mode": 4
        }
      ]
    },
    {
      "name": "Object_3",
      "primitives": [
        {
          "attributes": {
            "NORMAL": 11,
            "POSITION": 10,
            "TEXCOORD_0": 12
          },
          "indices": 13,
          "material": 1,
          "mode": 4
        }
      ]
    },
    {
      "name": "Object_4",
      "primitives": [
        {
          "attributes": {
            "NORMAL": 15,
            "POSITION": 14,
            "TEXCOORD_0": 16
          },
          "indices": 17,
          "material": 2,
          "mode": 4
        }
      ]
    },
    {
      "name": "Object_5",
      "primitives": [
        {
          "attributes": {
            "NORMAL": 19,
            "POSITION": 18,
            "TEXCOORD_0": 20
          },
          "indices": 21,
          "material": 5,
          "mode": 4
        }
      ]
    },
    {
      "name": "Object_6",
      "primitives": [
        {
          "attributes": {
            "NORMAL": 23,
            "POSITION": 22,
            "TEXCOORD_0": 24
          },
          "indices": 25,
          "material": 3,
          "mode": 4
        }
      ]
    },
    {
      "name": "Object_7",
      "primitives": [
        {
          "attributes": {
            "NORMAL": 27,
            "POSITION": 26,
            "TEXCOORD_0": 28
          },
          "indices": 29,
          "material": 4,
          "mode": 4
        }
      ]
    },
    {
      "name": "Object_8",
      "primitives": [
        {
          "attributes": {
            "NORMAL": 31,
            "POSITION": 30,
            "TEXCOORD_0": 32
          },
          "indices": 33,
          "material": 7,
          "mode": 4
        }
      ]
    },
    {
      "name": "Object_9",
      "primitives": [
        {
          "attributes": {
            "NORMAL": 35,
            "POSITION": 34,
            "TEXCOORD_0": 36
          },
          "indices": 37,
          "material": 9,
          "mode": 4
        }
      ]
    },
    {
      "name": "Object_10",
      "primitives": [
        {
          "attributes": {
            "NORMAL": 39,
            "POSITION": 38,
            "TEXCOORD_0": 40
          },
          "indices": 41,
          "material": 10,
          "mode": 4
        }
      ]
    },
    {
      "name": "Object_11",
      "primitives": [
        {
          "attributes": {
            "NORMAL": 43,
            "POSITION": 42,
            "TEXCOORD_0": 44
          },
          "indices": 45,
          "material": 8,
          "mode": 4
        }
      ]
    },
    {
      "name": "Object_12",
      "primitives": [
        {
          "attributes": {
            "NORMAL": 47,
            "POSITION": 46,
            "TEXCOORD_0": 48
          },
          "indices": 49,
          "material": 11,
          "mode": 4
        }
      ]
    },
    {
      "name": "Object_13",
      "primitives": [
        {
          "attributes": {
            "NORMAL": 51,
            "POSITION": 50,
            "TEXCOORD_0": 52
          },
          "indices": 53,
          "material": 6,
          "mode": 4
        }
      ]
    }
  ],
  "nodes": [
    {
      "children": [
        1
      ],
      "matrix": [
        1.0,
        0.0,
        0.0,
        0.0,
        0.0,
        2.220446049250313e-16,
        -1.0,
        0.0,
        0.0,
        1.0,
        2.220446049250313e-16,
        0.0,
        0.0,
        0.0,
        0.0,
        1.0
      ],
      "name": "Sketchfab_model"
    },
    {
      "children": [
        2,
        3,
        4,
        5,
        6,
        7,
        8,
        9,
        10,
        11,
        12,
        13,
        14,
        15
      ],
      "name": "chemistry_testtubes_holder.obj.cleaner.materialmerger.gles"
    },
    {
      "mesh": 0,
      "name": "Object_2"
    },
    {
      "mesh": 1,
      "name": "Object_3"
    },
    {
      "mesh": 2,
      "name": "Object_4"
    },
    {
      "mesh": 3,
      "name": "Object_5"
    },
    {
      "mesh": 4,
      "name": "Object_6"
    },
    {
      "mesh": 5,
      "name": "Object_7"
    },
    {
      "mesh": 6,
      "name": "Object_8"
    },
    {
      "mesh": 7,
      "name": "Object_9"
    },
    {
      "mesh": 8,
      "name": "Object_10"
    },
    {
      "mesh": 9,
      "name": "Object_11"
    },
    {
      "mesh": 10,
      "name": "Object_12"
    },
    {
      "mesh": 11,
      "name": "Object_13"
    },
    {
      "mesh": 12,
      "name": "Object_14"
    },
    {
      "mesh": 13,
      "name": "Object_15"
    }
  ],
  "scene": 0,
  "scenes": [
    {
      "name": "Sketchfab_Scene",
      "nodes": [
        0
      ]
    }
  ]
}
